<svg xmlns="http://www.w3.org/2000/svg" width="98" height="50" viewBox="0 0 98 50">
    <path d="M92.7 23.2L81.8 2.2C81.1 0.8 79.7 0 78.2 0L4.6 0C2.4 0 0.6 1.8 0.6 4L0.6 46C0.6 48.2 2.4 50 4.6 50L78.2 50C79.7 50 81.1 49.2 81.8 47.8L92.7 26.8C93.3 25.7 93.3 24.3 92.7 23.2L92.7 23.2Z" fill="#0090E3"/>
    <path d="M27.1 35L27.1 39.2C27.1 39.5 27.3 39.8 27.5 40.1 27.7 40.3 28.1 40.4 28.4 40.3 29.2 40.4 29.9 39.7 29.9 38.9L29.9 35.7 29.1 35.7 29.1 35 30.9 35 30.9 40.2 31.7 40.2 31.7 41 30 41 29.9 40.3 29.9 40.3C29.5 40.8 28.7 41.1 28 41.1 27.5 41.2 27 41 26.7 40.6 26.3 40.3 26.1 39.8 26.2 39.3L26.2 35.7 25.3 35.7 25.3 35 27.1 35ZM22.7 34.9C24.2 34.9 24.9 35.7 24.9 36.6 24.9 37.4 24.5 38.3 23.1 38.3L20.9 38.3C21 39.4 21.4 40.3 22.5 40.3L24.5 40.3 24.5 40.9C23.9 41 23.2 41.1 22.5 41.1 20.6 41.1 19.9 39.8 19.9 38 19.9 36.1 20.7 34.9 22.7 34.9ZM41.7 34.9C43.2 34.9 43.9 35.7 43.9 36.6 43.9 37.4 43.5 38.3 42.1 38.3L39.9 38.3C40 39.4 40.4 40.3 41.5 40.3L43.5 40.3 43.5 40.9C42.9 41 42.2 41.1 41.5 41.1 39.6 41.1 38.9 39.8 38.9 38 38.9 36.1 39.7 34.9 41.7 34.9ZM15.5 34.4L15.5 35.1 14.9 35.1 14.9 37.2 15.8 37.2 17.4 35.1 16.9 35.1 16.9 34.4 19.2 34.4 19.2 35.1 18.5 35.1 16.6 37.6 18.7 40.3 19.2 40.3 19.2 41 16.8 41 16.8 40.3 17.5 40.3 15.8 38.1 14.9 38.1 14.9 40.3 15.5 40.3 15.5 41 13.2 41 13.2 40.3 13.9 40.3 13.9 35.1 13.2 35.1 13.2 34.4 15.5 34.4ZM37.6 35L37.6 35.7 34.2 40.2 36.9 40.2 36.9 39.5 37.7 39.5 37.7 41 32.9 41 32.9 40.3 36.4 35.7 33.8 35.7 33.8 36.5 33 36.5 33 35 37.6 35ZM41.6 35.7C40.5 35.7 40 36.5 39.9 37.6L41.9 37.6C42.7 37.6 42.9 37.1 42.9 36.7 42.9 36.2 42.5 35.7 41.6 35.7ZM22.6 35.7C21.5 35.7 21 36.5 20.9 37.6L22.9 37.6C23.7 37.6 23.9 37.1 23.9 36.7 23.9 36.2 23.5 35.7 22.6 35.7ZM32.4 20.8C35.4 20.8 36.5 22.7 36.5 25.5 36.5 28.3 35.4 30.2 32.4 30.2 29.3 30.2 28.2 28.3 28.2 25.5 28.2 22.7 29.3 20.8 32.4 20.8ZM42.3 20.8C44.7 20.8 45.8 22.2 45.8 23.6 45.8 24.9 45.3 26.2 43.2 26.2L40.2 26.2C40.2 27.5 40.7 28.4 42 28.4L45.2 28.4 45.2 29.8C44.2 30.1 43.1 30.2 42 30.2 39 30.2 37.9 28.3 37.9 25.5 37.9 22.7 39.2 20.8 42.3 20.8ZM61.5 20.8C63.9 20.8 65.1 22.2 65.1 23.6 65.1 24.9 64.5 26.2 62.4 26.2L59.4 26.2C59.5 27.5 59.9 28.4 61.3 28.4L64.4 28.4 64.4 29.8C63.4 30.1 62.3 30.2 61.3 30.2 58.2 30.2 57.1 28.3 57.1 25.5 57.1 22.7 58.4 20.8 61.5 20.8ZM16.9 20C18 20 19.1 20.1 20.2 20.3L20.2 22.6 18.7 22.6 18.7 21.8 17.3 21.8C15.2 21.8 14.8 23.6 14.8 25.1 14.8 26.6 15.2 28.4 16.9 28.4L18.1 28.4 18.1 26 16.6 26 16.6 24.6 20.2 24.6 20.2 29.9C19.1 30.1 18 30.2 16.9 30.2 13.4 30.2 12.6 27.6 12.6 25.1 12.6 22.6 13.4 20 16.9 20ZM27.8 20.8L27.8 22.9 27.2 22.9C25.6 22.9 24.9 23.7 24.9 24.8L24.9 28.4 26.2 28.4 26.2 30 21.7 30 21.7 28.4 22.7 28.4 22.7 22.7 21.7 22.7 21.7 21 24.7 21 24.9 22.5 24.9 22.5C25.4 21.4 26.6 20.7 27.8 20.8ZM54.6 21.6C55.1 22.1 55.4 22.9 55.3 23.6L55.3 28.4 56.3 28.4 56.3 30 52.2 30 52.2 28.4 53.1 28.4 53.1 23.8C53.1 22.9 52.4 22.5 51.6 22.5 51.2 22.5 50.7 22.6 50.4 23 50.1 23.3 49.9 23.7 49.9 24.1L49.9 28.4 50.9 28.4 50.9 30 46.7 30 46.7 28.4 47.7 28.4 47.7 22.7 46.7 22.7 46.7 21 49.7 21 49.9 22 49.9 22C50.6 21.2 51.6 20.8 52.6 20.8 53.3 20.7 54.1 21 54.6 21.6ZM32.4 22.6C30.9 22.6 30.5 23.7 30.5 25.5 30.5 27.3 30.9 28.4 32.4 28.4 33.8 28.4 34.3 27.3 34.3 25.5 34.3 23.7 33.8 22.6 32.4 22.6ZM61.4 22.6C60.2 22.6 59.6 23.5 59.4 24.8L61.7 24.8C62.6 24.8 62.9 24.3 62.9 23.7 62.9 23.2 62.4 22.6 61.4 22.6ZM42.2 22.6C40.9 22.6 40.3 23.5 40.2 24.8L42.5 24.8C43.3 24.8 43.7 24.3 43.7 23.7 43.7 23.2 43.1 22.6 42.2 22.6ZM46.9 10L46.9 14.3C46.9 14.6 47.1 14.9 47.3 15.1 47.6 15.3 47.9 15.4 48.2 15.4 49 15.4 49.7 14.8 49.8 14L49.8 10.8 48.9 10.8 48.9 10 50.7 10 50.7 15.3 51.5 15.3 51.5 16 49.8 16 49.8 15.3 49.7 15.3C49.3 15.9 48.6 16.2 47.8 16.1 47.3 16.2 46.8 16 46.5 15.7 46.1 15.3 45.9 14.8 46 14.3L46 10.8 45.2 10.8 45.2 10 46.9 10ZM16.1 7.8C16.8 7.8 17.5 7.8 18.2 8L18.2 9.6 17.5 9.6 17.5 8.7 16.2 8.7C14.3 8.7 14 10.5 14 12 14 13.4 14.3 15.2 16.2 15.2L17.5 15.2 17.5 14.3 18.2 14.3 18.2 15.9C17.5 16.1 16.8 16.1 16.1 16.1 13.5 16.1 12.9 14 12.9 12 12.9 9.9 13.5 7.8 16.1 7.8ZM28.2 9.9C30.1 9.9 30.8 11.2 30.8 13 30.8 14.9 30.1 16.1 28.2 16.1 26.3 16.1 25.6 14.9 25.6 13 25.6 11.2 26.3 9.9 28.2 9.9ZM55.2 9.9C56.7 9.9 57.5 10.8 57.5 11.7 57.5 12.5 57.1 13.3 55.7 13.3L53.5 13.3C53.5 14.4 53.9 15.3 55.1 15.3L57.1 15.3 57.1 15.9C56.4 16.1 55.7 16.1 55.1 16.1 53.2 16.1 52.5 14.9 52.5 13 52.5 11.2 53.3 9.9 55.2 9.9ZM62.7 9.9C63.3 9.9 63.9 10 64.5 10.1L64.5 10.8 62.8 10.8C61.7 10.8 61.5 11.2 61.5 11.5 61.5 12 61.6 12.3 62.7 12.6 63.9 12.8 64.9 13.2 64.9 14.4 64.9 15.6 63.9 16.1 62.6 16.1 61.8 16.1 61.1 16.1 60.4 15.9L60.4 15.3 62.5 15.3C63.6 15.3 63.8 14.7 63.8 14.4 63.8 14 63.7 13.6 62.6 13.4 61.4 13.2 60.4 12.9 60.4 11.5 60.4 10.4 61.4 9.9 62.7 9.9ZM21.9 9.9C23.8 9.9 24.5 11.2 24.5 13 24.5 14.9 23.8 16.1 21.9 16.1 20 16.1 19.3 14.9 19.3 13 19.3 11.2 20 9.9 21.9 9.9ZM33.2 7.6L33.2 15.3 34 15.3 34 16 31.5 16 31.5 15.3 32.3 15.3 32.3 8.4 31.5 8.4 31.5 7.6 33.2 7.6ZM37.1 7.6L37.1 10.8 37.1 10.8C37.5 10.2 38.1 9.9 38.8 9.9 40.5 9.9 41.1 11.2 41.1 13 41.1 14.9 40.3 16 38.4 16L35.3 16 35.3 15.3 36.1 15.3 36.1 8.4 35.3 8.4 35.3 7.6 37.1 7.6ZM43.6 7.6L43.6 15.3 44.4 15.3 44.4 16 41.9 16 41.9 15.3 42.7 15.3 42.7 8.4 41.9 8.4 41.9 7.6 43.6 7.6ZM21.9 10.7C20.7 10.7 20.3 11.7 20.3 13 20.3 14.3 20.7 15.3 21.9 15.3 23.1 15.3 23.5 14.3 23.5 13 23.5 11.7 23.1 10.7 21.9 10.7ZM28.2 10.7C27 10.7 26.6 11.7 26.6 13 26.6 14.3 27 15.3 28.2 15.3 29.5 15.3 29.8 14.3 29.8 13 29.8 11.7 29.5 10.7 28.2 10.7ZM38.5 10.7C38.1 10.7 37.8 10.9 37.5 11.1 37.2 11.4 37.1 11.7 37.1 12.1L37.1 15.2 38.4 15.2C39.6 15.2 40.1 14.3 40.1 13 40.1 11.7 39.8 10.7 38.5 10.7ZM55.2 10.8C54.1 10.8 53.6 11.6 53.5 12.6L55.5 12.6C56.3 12.6 56.5 12.2 56.5 11.7 56.5 11.2 56 10.8 55.2 10.8ZM59.5 7.9L59.5 8.8C59.5 9.5 59.4 10.2 59.2 10.9L58.6 10.9 58.6 7.9 59.5 7.9Z" fill="#FFFFFF"/>
    <path d="M73.5 14.3C73.5 15.8 73.6 17.8 73.7 19.6 71.8 21.2 70.5 22.9 70.6 23.9 70.8 24.8 71.6 26.4 73 26.4 73.2 25.9 73.5 25.5 73.8 25.1 74.4 24.3 75.4 23.8 76.4 23.9L84.6 24.5C94.1 25.1 97.7 15.7 97.3 2 97.3 2 73.7 0.7 73.5 14.3Z" fill="#FFFFFF"/>
    <path d="M84.6 21.3L77.5 20.9 77.5 20.9 77.9 20.5C78 20.4 78 20.4 78 20.4L88.3 10.5 76.8 16.5C76.8 16.5 76.8 15.9 77 13.3 77.4 5.7 94.2 5.3 94.2 5.3 93.7 15.9 89.6 21.5 84.6 21.3Z" fill="#39B54A"/>
</svg>
