<?xml version="1.0" encoding="UTF-8"?>
<svg version="1.1" viewBox="0 0 24 24" xmlns="http://www.w3.org/2000/svg">
    <g fill="none" fill-rule="evenodd">
        <g transform="translate(-1298 -65)">
            <g transform="translate(1169 63)">
                <g transform="translate(19 2)">
                    <g transform="translate(110)">
                        <g transform="translate(12 12) scale(-1 1) translate(-12 -12)">
                            <path d="m8.9347 8.1691e-15c0.65618 0 1.1881 0.53619 1.1881 1.1976v3.6407c0 0.11647-0.016494 0.22905-0.047255 0.33551l1.6631-1.7947e-4c0.36746 0 0.66535 0.30026 0.66535 0.67066v4.4551c0 2.7596-2.1636 5.0099-4.8742 5.1214 0.0040004 0.055087 0.0036755 0.1116-4.6653e-4 0.16873-0.15696 2.1647 0.078825 3.7199 0.64146 4.6578 0.46719 0.77884 1.189 1.1662 2.321 1.1887l0.019384 3.267e-4 0.030324-0.0046281c1.2583-0.19609 1.9783-0.58739 2.4044-1.1642l0.013219-0.018085 0.0207-0.028987c0.32084-0.45513 0.48045-0.9616 0.71401-2.1518l0.068105-0.35128c0.17409-0.89163 0.28211-1.3298 0.48563-1.8723 0.31252-0.83302 0.76108-1.524 1.4105-2.0873 1.4319-1.2419 3.6961-1.7218 7.1421-1.4916 0.69403 0.046365 1.2194 0.65106 1.1734 1.3506-0.045998 0.69957-0.64591 1.2291-1.3399 1.1827-2.8502-0.19041-4.498 0.15886-5.3327 0.88282-0.30023 0.26039-0.51524 0.5869-0.68528 1.029l-0.01207 0.031773c-0.14375 0.38317-0.22969 0.7393-0.38619 1.5467l-0.055254 0.28592c-0.13189 0.6774-0.21029 1.021-0.34001 1.4451-0.20032 0.65486-0.46194 1.2187-0.82763 1.7243-0.86112 1.1906-2.2127 1.9219-4.1611 2.2098l-0.059228 0.0085899-0.087592 0.012465h-0.088461c-2.0384 0-3.6227-0.81474-4.5827-2.415-0.87681-1.4617-1.1882-3.5049-0.99953-6.1373l0.069323 0.0014561c-2.8084 0-5.0851-2.2949-5.0851-5.1257v-4.4551c0-0.37039 0.29789-0.67066 0.66535-0.67066l1.6631 1.7947e-4c-0.030761-0.10646-0.047255-0.21904-0.047255-0.33551v-3.6407c0-0.66142 0.53194-1.1976 1.1881-1.1976s1.1881 0.53619 1.1881 1.1976v3.6407c0 0.11647-0.016494 0.22905-0.047255 0.33551h3.1836c-0.030761-0.10646-0.047255-0.21904-0.047255-0.33551v-3.6407c0-0.66142 0.53194-1.1976 1.1881-1.1976z" fill="#00b900"/>
                        </g>
                    </g>
                </g>
            </g>
        </g>
    </g>
</svg>